<svg id="Layer_1" data-name="Layer 1" xmlns="http://www.w3.org/2000/svg" viewBox="0 0 96.07 96.07"><defs><style>.cls-1{fill:#042e42;}</style></defs><title>diverse_skill</title><path class="cls-1" d="M48,108.54a48,48,0,1,1,48-48A48.09,48.09,0,0,1,48,108.54Zm0-92.91A44.87,44.87,0,1,0,92.83,60.5,44.92,44.92,0,0,0,48,15.63Z" transform="translate(0.07 -12.46)"/><path class="cls-1" d="M52.56,91.39H43.83a3.31,3.31,0,0,1-3.32-2.93l-.94-7.28a2,2,0,0,0-1.14-1.63A22.15,22.15,0,0,1,26.23,59.9,21.85,21.85,0,0,1,49.15,38.07a22,22,0,0,1,21,21.33h0A22.06,22.06,0,0,1,58,79.53a2.23,2.23,0,0,0-1.19,1.7l-.93,7.28A3.31,3.31,0,0,1,52.56,91.39ZM48.07,40.58A19.29,19.29,0,0,0,28.76,59.9,19.56,19.56,0,0,0,39.52,77.26a4.5,4.5,0,0,1,2.57,3.66L43,88.18a.77.77,0,0,0,.8.68h8.73a.77.77,0,0,0,.81-.63l.94-7.37a4.75,4.75,0,0,1,2.61-3.62A19.52,19.52,0,0,0,67.64,59.46h0A19.49,19.49,0,0,0,49,40.6ZM45.15,87.17A1.26,1.26,0,0,1,45,84.65l6.29-.75a1.26,1.26,0,1,1,.3,2.51l-6.29.75Zm0-3.66A1.26,1.26,0,0,1,45,81l6.29-.76a1.3,1.3,0,0,1,1.41,1.11,1.27,1.27,0,0,1-1.11,1.41l-6.29.75Zm.37-7.14h-.05a1.26,1.26,0,0,1-1.21-1.32l.46-10.93c-3.81-1.3-5.63-2.93-5.63-5a4,4,0,0,1,6.29-3.63,4.48,4.48,0,0,1,2.06,4.1l-.11,2.64c.94.26,2,.51,3.27.76,1.17-3.1,2.41-3.64,3.46-3.64a3.93,3.93,0,0,1,1.88.51,3.15,3.15,0,0,1,1.49,3.85,3.44,3.44,0,0,1-3.72,2.39l-1.38-.22a52.06,52.06,0,0,0-1,5.17,1.27,1.27,0,0,1-2.5-.39,53.07,53.07,0,0,1,1.06-5.24c-.94-.18-1.81-.38-2.62-.59l-.43,10.3A1.27,1.27,0,0,1,45.52,76.37Zm7.61-12.89.94.14c.52.11.87-.42,1-.69a.61.61,0,0,0-.28-.81,1.43,1.43,0,0,0-.69-.2S53.69,62.12,53.13,63.48ZM43.07,57.35a1.4,1.4,0,0,0-.7.19c-.34.19-.75.55-.75,1.61,0,.53.81,1.4,3.21,2.31l.08-2a2,2,0,0,0-.9-1.82A1.79,1.79,0,0,0,43.07,57.35Zm35.22,6.72h-.11l-5.72-.47a1.26,1.26,0,0,1,.2-2.52l5.73.47a1.25,1.25,0,0,1,1.16,1.36A1.27,1.27,0,0,1,78.29,64.07Zm-60.65,0a1.26,1.26,0,0,1-.1-2.52l5.72-.47a1.26,1.26,0,1,1,.21,2.52l-5.73.47Zm51.45-18.4a1.26,1.26,0,0,1-.9-.37,1.27,1.27,0,0,1,0-1.79l4.13-4.13a1.27,1.27,0,0,1,1.79,0,1.26,1.26,0,0,1,0,1.79L70,45.3A1.25,1.25,0,0,1,69.09,45.67Zm-42.25,0A1.23,1.23,0,0,1,26,45.3l-4.13-4.13a1.26,1.26,0,0,1,0-1.79,1.27,1.27,0,0,1,1.79,0l4.13,4.13a1.27,1.27,0,0,1,0,1.79A1.26,1.26,0,0,1,26.84,45.67ZM48,36.38a1.26,1.26,0,0,1-1.26-1.27V29.29a1.27,1.27,0,0,1,2.53,0v5.82A1.27,1.27,0,0,1,48,36.38Z" transform="translate(0.07 -12.46)"/></svg>