<?xml version="1.0" encoding="utf-8"?>
<!-- Generator: Adobe Illustrator 23.0.2, SVG Export Plug-In . SVG Version: 6.00 Build 0)  -->
<svg version="1.1" id="Layer_1" xmlns="http://www.w3.org/2000/svg" xmlns:xlink="http://www.w3.org/1999/xlink" x="0px" y="0px"
	 viewBox="0 0 96.1 96.1" style="enable-background:new 0 0 96.1 96.1;" xml:space="preserve">
<style type="text/css">
	.st0{fill:#F29100;}
</style>
<title>diverse_skill</title>
<g>
	<g>
		<path class="st0" d="M47.9,80.8c-0.9,0-1.6-0.7-1.6-1.6V19.4c0-0.9,0.7-1.6,1.6-1.6s1.6,0.7,1.6,1.6v59.9
			C49.5,80.1,48.8,80.8,47.9,80.8z"/>
		<path class="st0" d="M77.8,50.9H17.9c-0.9,0-1.6-0.7-1.6-1.6s0.7-1.6,1.6-1.6h59.9c0.9,0,1.6,0.7,1.6,1.6S78.7,50.9,77.8,50.9z"/>
	</g>
	<path class="st0" d="M47.9,95.2C22.6,95.2,2,74.6,2,49.3S22.6,3.4,47.9,3.4S93.8,24,93.8,49.3S73.2,95.2,47.9,95.2z M47.9,6.6
		C24.3,6.6,5.2,25.7,5.2,49.3S24.3,92,47.9,92s42.7-19.2,42.7-42.7S71.4,6.6,47.9,6.6z"/>
</g>
</svg>
