<?xml version="1.0" encoding="utf-8"?>
<!-- Generator: Adobe Illustrator 23.0.2, SVG Export Plug-In . SVG Version: 6.00 Build 0)  -->
<svg version="1.1" id="Layer_1" xmlns="http://www.w3.org/2000/svg" xmlns:xlink="http://www.w3.org/1999/xlink" x="0px" y="0px"
	 viewBox="0 0 50 50" style="enable-background:new 0 0 50 50;" xml:space="preserve">
<style type="text/css">
	.st0{fill:#FFFFFF;}
</style>
<path class="st0" d="M34.2,44.2c-0.2-0.5-0.6-1.3-1-2.3c-0.6-1.4-1.4-3.1-2.2-5.1c-0.1-0.2-0.3-0.4-0.5-0.5c-0.2-0.1-0.4-0.1-0.6,0
	c-0.4,0.2-0.6,0.7-0.4,1.1c1,2.3,1.9,4.3,2.6,5.8c0.2,0.4,0.3,0.7,0.4,1c-2.5,0-4.5,0-6.3,0c-2.9,0-5.1,0-8.1,0h-3.2
	c-0.5,0-0.9,0.4-0.9,0.8c0,0.5,0.4,0.9,0.8,0.9H18c2.1,0,3.9,0,5.8,0c3,0,6.9-0.1,9.2-0.1C34.9,45.8,34.2,44.2,34.2,44.2z"/>
<g>
	<path class="st0" d="M26.3,26.6l-0.8-1.8c-2.1-4.5-3.4-7.3-4.1-8.4v-4.9h2c0,0.1,0,0.2,0,0.3v0.4c0,0.3,0.3,0.6,0.6,0.6h6
		c0.3,0,0.5-0.2,0.6-0.4c0.1-0.2,0-0.5-0.1-0.7l-2.2-2.2l2.2-2.2c0.2-0.2,0.2-0.5,0.1-0.7c-0.1-0.2-0.3-0.4-0.6-0.4h-3.3V5.6
		c0-0.3-0.3-0.6-0.6-0.6h-3.8c-0.1-0.6-0.6-1-1.2-1c-0.7,0-1.2,0.5-1.2,1.2l0,5.8c0,0.2,0.1,0.3,0.2,0.4l0,4.3l0,0c0,0-0.4,1-0.4,1
		L6.5,44.7c-0.1,0.3-0.1,0.6,0.1,0.8c0.2,0.3,0.4,0.4,0.7,0.4h3.4c0.5,0,0.9-0.4,0.9-0.9c0-0.5-0.4-0.9-0.9-0.9h-2l7.7-16.4
		c0.8-0.9,1.5-1.5,1.9-1.9c0.2,0.3,0.3,0.6,0.5,1c0.5,1.3,0.9,2.1,1.7,2.1c0.8,0,1.2-0.9,1.6-2.1c0.1-0.3,0.3-0.7,0.4-1
		c0.6,0.5,1.7,1.6,2.9,2.9c0,0,0,0,0.1,0l0.5,1c0.6,1.4,1.4,3,2.2,4.8c0.1,0.3,0.4,0.5,0.8,0.5c0.1,0,0.3,0,0.4-0.1
		c0.2-0.1,0.3-0.2,0.4-0.4c0.1-0.2,0.1-0.5,0-0.7C28.3,31.1,27.2,28.7,26.3,26.6z M21.1,6c0.1,0.2,0.3,0.3,0.5,0.3h3.8v0.7
		c0,0.3,0.3,0.6,0.6,0.6h2.5L27,9.2c-0.2,0.2-0.2,0.6,0,0.9l1.6,1.6H26l0.2-0.1c0.3-0.1,0.5-0.4,0.5-0.7c0-0.3-0.3-0.6-0.6-0.6h-5
		L21.1,6z M22.2,23.9c-1,0-1.3,1-1.8,2.4c0,0,0-0.1-0.1-0.1c-0.5-1.3-1-2.3-1.8-2.3c-0.1,0-0.2,0-0.4,0.1l2.5-5.4
		c0.5,1.1,1.4,2.8,2.8,5.8C22.9,24.1,22.5,23.9,22.2,23.9z"/>
	<path class="st0" d="M44.3,44.5l-11-23c-0.1-0.3-0.5-0.5-0.8-0.5c-0.3,0-0.7,0.2-0.8,0.5l-2.8,6.7c-0.2,0.4,0,1,0.5,1.2
		c0.4,0.2,1,0,1.2-0.5l2.1-4.9L42.1,44h-4.2c-0.5,0-0.9,0.4-0.9,0.9c0,0.5,0.4,0.9,0.9,0.9h5.6c0.3,0,0.6-0.2,0.7-0.4
		S44.4,44.8,44.3,44.5z"/>
</g>
</svg>
