<?xml version="1.0" encoding="utf-8"?>
<!-- Generator: Adobe Illustrator 23.0.2, SVG Export Plug-In . SVG Version: 6.00 Build 0)  -->
<svg version="1.1" id="Layer_1" xmlns="http://www.w3.org/2000/svg" xmlns:xlink="http://www.w3.org/1999/xlink" x="0px" y="0px"
	 viewBox="0 0 50 50" style="enable-background:new 0 0 50 50;" xml:space="preserve">
<style type="text/css">
	.st0{fill:#FFFFFF;}
</style>
<g>
	<path class="st0" d="M16.5,45.9c-0.2,0-0.3,0-0.4-0.1c-0.3-0.2-0.4-0.5-0.4-0.8l1.1-6.2h-5.5c-0.4,0-0.7-0.2-0.8-0.6L4,15.4
		C4,15.2,4,15,4.1,14.8c0.1-0.2,0.3-0.3,0.5-0.4l5.2-1.3c0.4-0.1,0.9,0.2,1,0.6c0.1,0.4-0.2,0.9-0.6,1l-4.4,1.1l6.1,21.4h5.9
		c0.2,0,0.5,0.1,0.6,0.3c0.2,0.2,0.2,0.4,0.2,0.7l-0.9,5.2l13.7-9.6c0.1-0.1,0.3-0.1,0.4-0.1l10-0.3l2.4-26.8l-30.1,7.3
		c-0.4,0.1-0.9-0.2-1-0.6c-0.1-0.4,0.2-0.9,0.6-1L45,4.6c0.3-0.1,0.5,0,0.7,0.2C45.9,5,46,5.2,46,5.5l-2.6,28.6
		c0,0.4-0.4,0.7-0.8,0.7l-10.5,0.3L17,45.8C16.9,45.9,16.7,45.9,16.5,45.9z"/>
	<g>
		<path class="st0" d="M24.5,29.7c-1.7,0-2.7,0.9-2.7,2.5c0,1.6,1,2.5,2.7,2.5c1.7,0,2.6-0.9,2.6-2.5C27.2,30.7,26.2,29.7,24.5,29.7
			z M25.9,32.2c0,0.9-0.4,1.2-1.4,1.2c-1,0-1.4-0.3-1.4-1.2c0-0.9,0.4-1.2,1.4-1.2C25.5,31,25.9,31.3,25.9,32.2z"/>
		<path class="st0" d="M25.7,15.1c-1.7,0-3.5,0.4-5.4,1.1c-0.2,0.1-0.4,0.3-0.4,0.6v4.3c0,0.2,0.1,0.3,0.2,0.5
			c0.1,0.1,0.3,0.2,0.5,0.2l2.9-0.2c0.3,0,0.5-0.2,0.6-0.5l0.2-1.5l0,0c0.4-0.1,0.8-0.2,1.3-0.2c0.9,0,1.3,0.5,1.3,1.4
			c0,2.1-1.8,2.4-4.1,2.6c-0.3,0-0.6,0.3-0.6,0.6v4.3c0,0.3,0.3,0.6,0.6,0.6h3.6c0.3,0,0.6-0.3,0.6-0.6v-1.6c3.3-0.6,5.1-2.7,5.1-6
			C32.1,17,29.9,15.1,25.7,15.1z M25.7,26v1.5h-2.3v-3.1c1.5-0.1,4.7-0.5,4.7-3.8c0-1.7-0.9-2.7-2.5-2.7c-0.7,0-1.3,0.1-1.8,0.3
			c-0.5,0.2-0.6,0.6-0.7,1l-0.1,1l-1.7,0.1v-3.2c1.6-0.6,3.1-0.8,4.5-0.8c3.5,0,5.1,1.3,5.1,4.2c0,2.7-1.6,4.4-4.6,4.8
			C25.9,25.5,25.7,25.7,25.7,26z"/>
	</g>
</g>
</svg>
