<?xml version="1.0" encoding="utf-8"?>
<!-- Generator: Adobe Illustrator 23.0.2, SVG Export Plug-In . SVG Version: 6.00 Build 0)  -->
<svg version="1.1" id="Layer_1" xmlns="http://www.w3.org/2000/svg" xmlns:xlink="http://www.w3.org/1999/xlink" x="0px" y="0px"
	 viewBox="0 0 50 50" style="enable-background:new 0 0 50 50;" xml:space="preserve">
<style type="text/css">
	.st0{fill:#FFFFFF;}
</style>
<g>
	<path class="st0" d="M37.9,17.9l-2.4-1.8l0.4-3.4l-5.5-4l-3.1,1.4l-2.1-1.6l-6.3,2.8L18.4,15l15.4,11.2l0.7-0.3h0l2.7-1.2
		L37.9,17.9z M27.3,19.5l0.2-0.2c0,0,0,0,0.1,0c0.3,0,0.5-0.2,0.6-0.4c0.3-0.4,0.2-1-0.2-1.4c-0.2-0.2-0.5-0.2-0.7-0.2
		c-0.2,0-0.4,0.1-0.5,0.2c0,0,0,0-0.1,0.1l0,0l-0.1,0.1c0,0,0,0,0,0c0,0,0,0,0,0l-0.1,0.1l0,0c0,0,0,0.1,0,0.1
		c-0.1,0.2-0.1,0.4-0.1,0.5c0,0,0,0,0,0.1l-0.2,0.3l-6.2-4.5l0.2-1.9l4.6-2l1.5,1.1l-0.1,0.4c-0.2,0.1-0.3,0.3-0.4,0.5
		c0,0,0,0,0,0.1l0,0l0,0.1c0,0,0,0,0,0c0,0,0,0,0,0l0,0.1l0,0c0,0,0,0.1,0,0.1c0,0.2,0.1,0.4,0.2,0.5c0.1,0.2,0.4,0.4,0.6,0.4
		c0.1,0,0.1,0,0.2,0c0.5,0,0.9-0.3,1-0.8c0.1-0.3,0-0.6-0.2-0.8l0.1-0.5l2.5-1.1l1.4,1l-0.2,0.2c0,0,0,0-0.1,0
		c-0.2,0-0.4,0.1-0.6,0.3l0,0l-0.2,0.2l0,0c-0.1,0.2-0.1,0.4-0.1,0.6c0,0.3,0.2,0.5,0.4,0.6c0.2,0.1,0.4,0.2,0.6,0.2
		c0.1,0,0.1,0,0.2,0c0.3,0,0.5-0.2,0.6-0.4c0.2-0.2,0.2-0.5,0.2-0.7c0,0,0,0,0-0.1l0.2-0.2l1.6,1.2l-0.3,2.7l-0.5,0.2c0,0,0,0-0.1,0
		c-0.2-0.1-0.4-0.1-0.5,0c0,0-0.1,0-0.1,0l0,0l-0.1,0c0,0,0,0,0,0c0,0,0,0,0,0l-0.1,0l0,0c0,0-0.1,0-0.1,0.1
		c-0.4,0.3-0.5,0.8-0.3,1.2c0.2,0.4,0.5,0.6,0.9,0.6c0.1,0,0.3,0,0.4-0.1c0.2-0.1,0.4-0.3,0.5-0.6c0,0,0,0,0-0.1l0.5-0.2l1.8,1.3
		l-0.5,5L34,24.4l-5.8-4.2L27.3,19.5z"/>
	<path class="st0" d="M29.6,19.4l3,2.2l1-0.3c0.1,0,0.2,0.1,0.3,0.1c0.1,0,0.2,0,0.3,0c0.5-0.2,0.8-0.7,0.7-1.2
		c-0.1-0.4-0.6-0.7-1-0.7c0,0-0.1,0-0.1,0l0,0l-0.1,0c0,0,0,0,0,0c0,0,0,0,0,0c0,0,0,0,0,0l-0.1,0l0,0c0,0-0.1,0-0.1,0
		c-0.1,0.1-0.2,0.2-0.3,0.3l-0.2,0.1l-1.7-1.2l0.1-2.5l-3.1-2.3l-2,1.1l-1.8-1.3l-0.1-0.5c0.1-0.1,0.1-0.2,0.1-0.4c0,0,0-0.1,0-0.1
		l0,0l0-0.1c0,0,0,0,0,0c0,0,0,0,0,0l0-0.1l0,0c0,0,0-0.1,0-0.1c-0.1-0.2-0.2-0.3-0.3-0.4c-0.2-0.2-0.5-0.2-0.7-0.2
		c-0.3,0-0.5,0.2-0.6,0.4c-0.2,0.2-0.2,0.5-0.2,0.7c0,0.2,0.1,0.4,0.3,0.5l0.2,1.1l3.1,2.3l2-1.1l1.6,1.2L29.6,19.4z"/>
</g>
<g>
	<path class="st0" d="M42.3,19.4C41.8,10.8,34.6,4,25.9,4h0C16.8,4,9.5,11.4,9.5,20.4c0,0.9-0.2,1.8-0.6,2.6l-2.5,5.7
		c-0.5,1.2,0,2.6,1.2,3.2C7.7,32,7.7,32,7.8,32l1.6,0.5v5.1c0,2.1,1.7,3.8,3.8,3.8h5.1l1,3.5c0.2,0.6,0.8,0.9,1.3,0.7
		c0.6-0.2,0.9-0.8,0.7-1.3l-1.2-4.3c-0.1-0.5-0.6-0.8-1-0.8h-5.9c-0.9,0-1.7-0.8-1.7-1.7v-5.9c0-0.5-0.3-0.9-0.7-1L8.5,30
		c-0.1,0-0.2-0.2-0.2-0.3c0,0,0,0,0,0l2.5-5.7c0.5-1.1,0.7-2.3,0.7-3.5c0-7.9,6.4-14.3,14.3-14.3c0,0,0,0,0,0h0
		c7.9,0,14.3,6.4,14.3,14.3c0,1.2-0.2,2.4-0.5,3.6c0,0,0,0,0,0l-0.5,1.4c0,0,0,0,0,0c0,0,0,0,0,0c0,0,0,0,0,0
		c-0.1,0.5,0.2,1,0.7,1.2c0.1,0,0.2,0,0.3,0c0.4,0,1-0.2,1.1-0.7c0,0,0.4-0.8,0.7-2.4C42.3,22.3,42.4,20.9,42.3,19.4z"/>
	<path class="st0" d="M37.8,32.2l1.5-2.4c0.3-0.5,0.2-1.2-0.4-1.5c-0.5-0.3-1.2-0.2-1.5,0.4l-1.6,2.5l0,0c-0.3,0.3-0.4,0.7-0.3,1
		l2.4,8.3c0.2,0.6,0.8,0.9,1.3,0.7c0.6-0.2,0.9-0.8,0.7-1.3L37.8,32.2z"/>
</g>
</svg>
